<svg width="541" height="118" viewBox="0 0 541 118" fill="none" xmlns="http://www.w3.org/2000/svg">
<path d="M519.649 32.9076L519.911 35.1136H522.132H534.405H536.987L536.904 32.533C536.717 26.7505 534.915 21.5349 531.503 16.959C528.156 12.4231 523.646 8.8981 518.059 6.35751C512.432 3.76436 506.067 2.5 499.018 2.5C492.026 2.5 485.618 3.7856 479.837 6.40292C474.091 8.98584 469.44 12.659 465.958 17.4368L465.956 17.4396C462.448 22.268 460.723 27.9069 460.723 34.25C460.723 41.9372 463.354 48.3423 468.695 53.2258C473.828 57.9185 480.683 61.4308 489.123 63.8572L489.127 63.8584L502.013 67.5402L502.022 67.5427L502.031 67.5452C505.616 68.5409 508.934 69.6978 511.991 71.0125C514.886 72.2576 517.122 73.8331 518.782 75.6968C520.243 77.3366 521.064 79.5356 521.064 82.5227C521.064 85.8074 520.111 88.5958 518.227 90.9954C516.281 93.4411 513.6 95.4175 510.085 96.8811C506.578 98.3069 502.562 99.0455 497.996 99.0455C494.091 99.0455 490.483 98.4707 487.154 97.3419C483.936 96.2058 481.336 94.5167 479.291 92.2975C477.39 90.1676 476.242 87.4324 475.941 83.9444L475.744 81.6591H473.45H460.359H457.674L457.866 84.3372C458.305 90.4876 460.202 95.9664 463.594 100.7L463.602 100.711C467.026 105.438 471.689 109.076 477.499 111.654L477.504 111.657C483.379 114.248 490.233 115.5 497.996 115.5C506.309 115.5 513.534 114.11 519.578 111.216C525.589 108.356 530.268 104.439 533.488 99.424C536.725 94.4356 538.337 88.8475 538.337 82.7273C538.337 77.479 537.26 72.869 534.967 69.0213C532.783 65.3565 529.988 62.3291 526.585 59.9705C523.353 57.6736 519.945 55.851 516.364 54.5121C512.966 53.2295 509.851 52.2127 507.024 51.4703C507.022 51.4696 507.019 51.4689 507.017 51.4683L496.396 48.6087L496.389 48.6068L496.382 48.605C494.522 48.1155 492.463 47.4741 490.201 46.6764C488.048 45.8838 485.99 44.8864 484.025 43.683C482.2 42.5328 480.721 41.1222 479.562 39.448C478.553 37.9111 477.996 36.0113 477.996 33.6364C477.996 30.8109 478.79 28.3489 480.375 26.1665C482.019 23.9484 484.337 22.1435 487.433 20.7938C490.535 19.4564 494.241 18.75 498.609 18.75C504.569 18.75 509.419 20.092 513.295 22.6356C517.041 25.0941 519.123 28.4595 519.649 32.9076Z" stroke="white" stroke-width="5"/>
<path d="M364.242 17.6818V20.1818H366.742H397.173V111.159V113.659H399.673H412.355H414.855V111.159V20.1818H445.287H447.787V17.6818V6.43182V3.93182H445.287H366.742H364.242V6.43182V17.6818Z" stroke="white" stroke-width="5"/>
<path d="M277.859 111.159V113.659H280.359H293.041H295.541V111.159V72.75H315.95C316.352 72.75 316.751 72.7468 317.147 72.7404L338.5 112.345L339.208 113.659H340.7H355.428H359.648L357.62 109.958L335.331 69.2715C335.932 69.0071 336.519 68.7272 337.092 68.4316L337.092 68.4316L337.103 68.4257C342.725 65.486 346.982 61.3893 349.763 56.1285C352.501 50.9472 353.837 45.0644 353.837 38.5455C353.837 32.0257 352.501 26.1149 349.77 20.8731C346.992 15.5431 342.72 11.392 337.063 8.41542C331.342 5.37071 324.188 3.93182 315.746 3.93182H280.359H277.859V6.43182V111.159ZM315.541 56.2955H295.541V20.1818H315.337C320.773 20.1818 324.894 21.0222 327.863 22.5214L327.872 22.5259L327.881 22.5303C330.886 24.0178 332.97 26.0667 334.271 28.6692C335.635 31.3968 336.359 34.6651 336.359 38.5455C336.359 42.4288 335.634 45.6311 334.286 48.2385L334.281 48.2481C333.03 50.6946 330.983 52.6502 327.968 54.0829L327.959 54.0871C325.01 55.5028 320.922 56.2955 315.541 56.2955Z" stroke="white" stroke-width="5"/>
<path d="M187.342 113.659H189.108L189.698 111.995L199.636 84H238.457L248.395 111.995L248.986 113.659H250.751H264.047H267.628L266.394 110.297L227.939 5.57011L227.338 3.93182H225.592H212.501H210.756L210.155 5.57011L171.7 110.297L170.466 113.659H174.047H187.342ZM219.047 29.3207L232.689 67.75H205.405L219.047 29.3207Z" stroke="white" stroke-width="5"/>
<path d="M99.8281 111.159V113.659H102.328H115.01H117.51V111.159V75.4091H137.919C146.351 75.4091 153.497 73.8767 159.2 70.6335L159.211 70.6273C164.823 67.3994 169.037 63.0228 171.76 57.5042C174.47 52.0815 175.805 46.0873 175.805 39.5682C175.805 33.0469 174.47 27.0652 171.754 21.6714C168.992 16.184 164.739 11.8594 159.09 8.70271C153.385 5.46118 146.206 3.93182 137.715 3.93182H102.328H99.8281V6.43182V111.159ZM117.51 59.1591V20.1818H137.305C142.751 20.1818 146.854 21.1 149.798 22.7319L149.806 22.7365L149.814 22.741C152.824 24.3802 154.917 26.5873 156.208 29.3703L156.212 29.3799L156.217 29.3894C157.605 32.3158 158.328 35.6915 158.328 39.5682C158.328 43.4443 157.605 46.8411 156.213 49.807L156.208 49.8172C154.91 52.6162 152.817 54.8657 149.823 56.5724C146.92 58.2272 142.878 59.1591 137.51 59.1591H117.51Z" stroke="white" stroke-width="5"/>
<path d="M65.2901 32.9076L65.5513 35.1136H67.7727H80.0455H82.6274L82.5442 32.533C82.3576 26.7505 80.5556 21.5349 77.144 16.959C73.7962 12.4231 69.2866 8.8981 63.6996 6.35751C58.0724 3.76436 51.7078 2.5 44.6591 2.5C37.6668 2.5 31.2591 3.7856 25.4778 6.40292C19.7312 8.98584 15.0803 12.659 11.5988 17.4368L11.5968 17.4396C8.08866 22.268 6.36364 27.9069 6.36364 34.25C6.36364 41.9372 8.99452 48.3423 14.3358 53.2258C19.4685 57.9185 26.3239 61.4308 34.7638 63.8572L34.7677 63.8584L47.6541 67.5402L47.6629 67.5427L47.6718 67.5452C51.2564 68.5409 54.575 69.6978 57.6315 71.0125C60.5264 72.2576 62.763 73.8331 64.4229 75.6968C65.8833 77.3366 66.7046 79.5356 66.7046 82.5227C66.7046 85.8074 65.7515 88.5958 63.8681 90.9954C61.9215 93.4411 59.2404 95.4175 55.7251 96.8811C52.219 98.3069 48.2027 99.0455 43.6364 99.0455C39.7315 99.0455 36.1235 98.4707 32.7947 97.3419C29.5768 96.2058 26.9769 94.5167 24.9312 92.2975C23.0308 90.1676 21.8824 87.4324 21.5817 83.9444L21.3847 81.6591H19.0909H6H3.31506L3.50635 84.3372C3.94567 90.4876 5.84275 95.9664 9.23485 100.7L9.24245 100.711C12.6667 105.438 17.3296 109.076 23.1394 111.654L23.1447 111.657C29.0201 114.248 35.8732 115.5 43.6364 115.5C51.9498 115.5 59.1745 114.11 65.219 111.216C71.2293 108.356 75.9087 104.439 79.1288 99.424C82.3661 94.4356 83.9773 88.8474 83.9773 82.7273C83.9773 77.479 82.9009 72.869 80.6078 69.0213C78.4237 65.3565 75.6285 62.329 72.2256 59.9705C68.9934 57.6736 65.5858 55.851 62.0046 54.5121C58.607 53.2295 55.492 52.2127 52.665 51.4703C52.6625 51.4696 52.66 51.4689 52.6575 51.4683L42.0363 48.6087L42.0294 48.6068L42.0226 48.605C40.1624 48.1155 38.1032 47.4741 35.8419 46.6764C33.689 45.8838 31.6308 44.8864 29.6655 43.6829C27.8404 42.5328 26.3618 41.1222 25.203 39.448C24.1932 37.9111 23.6364 36.0113 23.6364 33.6364C23.6364 30.8109 24.431 28.3489 26.0156 26.1665C27.6601 23.9484 29.9773 22.1435 33.0739 20.7938C36.1758 19.4564 39.8817 18.75 44.25 18.75C50.2092 18.75 55.0592 20.092 58.9352 22.6356C62.6815 25.0941 64.7633 28.4595 65.2901 32.9076Z" stroke="white" stroke-width="5"/>
</svg>
